<?xml version="1.0" encoding="UTF-8"?>
<svg width="32px" height="32px" viewBox="0 0 32 32" version="1.1" xmlns="http://www.w3.org/2000/svg" xmlns:xlink="http://www.w3.org/1999/xlink">
    <title>-Icon/32px/X</title>
    <defs>
        <path d="M23.9899495,8.01005051 C24.5025126,8.52261364 24.5345478,9.33373856 24.0860551,9.88362191 L23.9899495,9.98994949 L17.979,16 L23.9899495,22.0100505 C24.5366835,22.5567845 24.5366835,23.4432155 23.9899495,23.9899495 C23.4773864,24.5025126 22.6662614,24.5345478 22.1163781,24.0860551 L22.0100505,23.9899495 L16,17.979 L9.98994949,23.9899495 C9.44321549,24.5366835 8.55678451,24.5366835 8.01005051,23.9899495 C7.49748737,23.4773864 7.46545218,22.6662614 7.91394492,22.1163781 L8.01005051,22.0100505 L14.021,16 L8.01005051,9.98994949 C7.4633165,9.44321549 7.4633165,8.55678451 8.01005051,8.01005051 C8.52261364,7.49748737 9.33373856,7.46545218 9.88362191,7.91394492 L9.98994949,8.01005051 L16,14.021 L22.0100505,8.01005051 C22.5567845,7.4633165 23.4432155,7.4633165 23.9899495,8.01005051 Z" id="path-1"></path>
    </defs>
    <g id="-Icon/32px/X" stroke="none" stroke-width="1" fill="none" fill-rule="evenodd">
        <rect id="ico_x" fill-opacity="0" fill="#000000" x="0" y="0" width="32" height="32"></rect>
        <mask id="mask-2" fill="white">
            <use xlink:href="#path-1"></use>
        </mask>
        <use id="Combined-Shape" fill-opacity="0" fill="#000000" fill-rule="nonzero" xlink:href="#path-1"></use>
        <g id="Group" mask="url(#mask-2)" fill="#000000">
            <g id="-Color/Primary/Black">
                <polygon id="sd_m" points="0 0 17.46875 0 32 0 32 32 0 32"></polygon>
            </g>
        </g>
    </g>
</svg>