<?xml version="1.0" encoding="UTF-8"?>
<svg width="32px" height="32px" viewBox="0 0 32 32" version="1.1" xmlns="http://www.w3.org/2000/svg" xmlns:xlink="http://www.w3.org/1999/xlink">
    <title>-Icon/32px/Home</title>
    <defs>
        <path d="M13.806833,7.41625827 L7.30683296,13.5339053 C6.66431593,14.1386272 6.3,14.9818094 6.3,15.8641453 L6.3,24 C6.3,25.2150264 7.28497355,26.2 8.5,26.2 L12.5,26.2 L12.657115,26.1944762 C13.7988144,26.1139152 14.7,25.1621992 14.7,24 L14.7,21.7 L17.3,21.7 L17.3,24 C17.3,25.2150264 18.2849736,26.2 19.5,26.2 L23.5,26.2 C24.7150264,26.2 25.7,25.2150264 25.7,24 L25.7,15.8641453 C25.7,14.9818094 25.3356841,14.1386272 24.693167,13.5339053 L18.193167,7.41625827 C16.961007,6.25657823 15.038993,6.25657823 13.806833,7.41625827 Z M23.0482918,15.2815853 L23.1227109,15.3619128 C23.2367507,15.5033029 23.3,15.6803253 23.3,15.8641453 L23.3,23.8 L19.7,23.8 L19.7,21.5 C19.7,20.2849736 18.7150264,19.3 17.5,19.3 L14.5,19.3 L14.342885,19.3055238 C13.2011856,19.3860848 12.3,20.3378008 12.3,21.5 L12.3,23.8 L8.7,23.8 L8.7,15.8641453 C8.7,15.6435613 8.79107898,15.4327658 8.95170824,15.2815853 L15.4517082,9.16393825 C15.7597482,8.87401824 16.2402518,8.87401824 16.5482918,9.16393825 L23.0482918,15.2815853 Z" id="path-1"></path>
    </defs>
    <g id="-Icon/32px/Home" stroke="none" stroke-width="1" fill="none" fill-rule="evenodd">
        <rect id="ico_home" fill-opacity="0" fill="#000000" x="0" y="0" width="32" height="32"></rect>
        <mask id="mask-2" fill="white">
            <use xlink:href="#path-1"></use>
        </mask>
        <use id="Rectangle" fill-opacity="0" fill="#000000" fill-rule="nonzero" xlink:href="#path-1"></use>
        <g id="Group" mask="url(#mask-2)" fill="#000000">
            <g id="-Color/Primary/Black">
                <polygon id="sd_m" points="0 0 17.46875 0 32 0 32 32 0 32"></polygon>
            </g>
        </g>
    </g>
</svg>