<?xml version="1.0" encoding="UTF-8"?>
<svg width="64px" height="64px" viewBox="0 0 64 64" version="1.1" xmlns="http://www.w3.org/2000/svg" xmlns:xlink="http://www.w3.org/1999/xlink">
    <title>Culture/5_공연&amp;슈퍼콘서트&amp;강연&amp;클래스&amp;Demoday</title>
    <g id="Culture/5_공연&amp;슈퍼콘서트&amp;강연&amp;클래스&amp;Demoday" stroke="none" stroke-width="1" fill="none" fill-rule="evenodd">
        <g id="Group-16" transform="translate(20.120800, 13.125000)">
            <path d="M7.0003,2 C6.4613,2 6.0233,2.438 6.0233,2.977 L6.0233,23 C6.0233,23.538 6.4613,23.977 7.0003,23.977 L17.0003,23.977 C17.5393,23.977 17.9783,23.538 17.9783,23 L17.9783,2.977 C17.9783,2.438 17.5393,2 17.0003,2 L7.0003,2 Z M17.0003,25.977 L7.0003,25.977 C5.3583,25.977 4.0233,24.642 4.0233,23 L4.0233,2.977 C4.0233,1.335 5.3583,0 7.0003,0 L17.0003,0 C18.6423,0 19.9783,1.335 19.9783,2.977 L19.9783,23 C19.9783,24.642 18.6423,25.977 17.0003,25.977 L17.0003,25.977 Z" id="Fill-3" fill="#000000"></path>
            <path d="M12.0003,38 C11.4483,38 11.0003,37.553 11.0003,37 L11.0003,29 C11.0003,28.447 11.4483,28 12.0003,28 C12.5523,28 13.0003,28.447 13.0003,29 L13.0003,37 C13.0003,37.553 12.5523,38 12.0003,38" id="Fill-5" fill="#000000"></path>
            <polygon id="Fill-7" fill="#000000" points="6.0002 38 18.0002 38 18.0002 36 6.0002 36"></polygon>
            <polygon id="Fill-9" fill="#231916" points="5.0232 9 10.0002 9 10.0002 7 5.0232 7"></polygon>
            <polygon id="Fill-10" fill="#000000" points="5.0232 19 10.0002 19 10.0002 17 5.0232 17"></polygon>
            <polygon id="Fill-11" fill="#231916" points="14.0002 9 18.9782 9 18.9782 7 14.0002 7"></polygon>
            <polygon id="Fill-12" fill="#000000" points="5.0232 14 10.0002 14 10.0002 12 5.0232 12"></polygon>
            <polygon id="Fill-13" fill="#000000" points="14.0002 14 18.9782 14 18.9782 12 14.0002 12"></polygon>
            <polygon id="Fill-14" fill="#000000" points="14.0002 19 18.9782 19 18.9782 17 14.0002 17"></polygon>
            <path d="M17.43,29.999 L17.428,29.999 L6.573,29.999 C2.949,29.999 0,27.051 0,23.427 L0,23 L2,23 L2,23.427 C2,25.948 4.052,27.999 6.573,27.999 L17.428,27.999 L17.43,27.999 C18.651,27.999 19.798,27.523 20.661,26.66 C21.525,25.797 22,24.648 22,23.427 L22,22.999 L24,22.999 L24,23.427 C24,25.183 23.317,26.833 22.076,28.074 C20.834,29.315 19.185,29.999 17.43,29.999" id="Fill-15" fill="#000000"></path>
        </g>
    </g>
</svg>