<?xml version="1.0" encoding="UTF-8"?>
<svg width="64px" height="64px" viewBox="0 0 64 64" version="1.1" xmlns="http://www.w3.org/2000/svg" xmlns:xlink="http://www.w3.org/1999/xlink">
    <title>Shopping/1_쇼핑</title>
    <g id="Shopping/1_쇼핑" stroke="none" stroke-width="1" fill="none" fill-rule="evenodd">
        <g id="Group-7" transform="translate(20.122000, 13.124000)" fill="#000000">
            <path d="M17.9996,14.001 L15.9996,14.001 L15.9996,4 C15.9996,2.897 15.1026,2 13.9996,2 L9.9996,2 C8.8966,2 7.9996,2.897 7.9996,4 L7.9996,14.001 L5.9996,14.001 L5.9996,4 C5.9996,1.794 7.7936,0 9.9996,0 L13.9996,0 C16.2056,0 17.9996,1.794 17.9996,4 L17.9996,14.001 Z" id="Fill-3"></path>
            <path d="M2,36 L22,36 L22,9 L2,9 L2,36 Z M23,38 L1,38 C0.447,38 0,37.553 0,37 L0,8 C0,7.447 0.447,7 1,7 L23,7 C23.552,7 24,7.447 24,8 L24,37 C24,37.553 23.552,38 23,38 L23,38 Z" id="Fill-5"></path>
        </g>
    </g>
</svg>