<?xml version="1.0" encoding="UTF-8"?>
<svg width="64px" height="64px" viewBox="0 0 64 64" version="1.1" xmlns="http://www.w3.org/2000/svg" xmlns:xlink="http://www.w3.org/1999/xlink">
    <title>Online/15_인터넷신청안내선택</title>
    <g id="Online/15_인터넷신청안내선택" stroke="none" stroke-width="1" fill="none" fill-rule="evenodd">
        <g id="Group-11" transform="translate(13.133300, 10.250000)" fill="#000000">
            <path d="M34,1.75 C29.52,1.75 25.875,5.395 25.875,9.875 C25.875,14.354 29.52,18 34,18 C38.48,18 42.125,14.354 42.125,9.875 C42.125,5.395 38.48,1.75 34,1.75 M34,19.75 C28.555,19.75 24.125,15.32 24.125,9.875 C24.125,4.43 28.555,0 34,0 C39.445,0 43.875,4.43 43.875,9.875 C43.875,15.32 39.445,19.75 34,19.75" id="Fill-3"></path>
            <path d="M32.606,13.981 C32.382,13.981 32.158,13.896 31.987,13.725 L28.017,9.755 L29.254,8.518 L32.606,11.869 L38.323,6.152 L39.56,7.389 L33.225,13.725 C33.054,13.896 32.83,13.981 32.606,13.981" id="Fill-5"></path>
            <polygon id="Fill-7" points="17.9997 37.875 19.9997 37.875 19.9997 31.11 17.9997 31.11"></polygon>
            <polygon id="Fill-9" points="9.4707 38.875 28.5297 38.875 28.5297 36.875 9.4707 36.875"></polygon>
            <path d="M37,31.8745 L1,31.8745 C0.448,31.8745 0,31.4265 0,30.8745 L0,8.8745 C0,8.3225 0.448,7.8745 1,7.8745 L25.055,7.8745 L25.055,9.8745 L2,9.8745 L2,29.8745 L36,29.8745 L36,18.3625 L38,18.3625 L38,30.8745 C38,31.4265 37.552,31.8745 37,31.8745" id="Fill-10"></path>
        </g>
    </g>
</svg>