<?xml version="1.0" encoding="UTF-8"?>
<svg width="64px" height="64px" viewBox="0 0 64 64" version="1.1" xmlns="http://www.w3.org/2000/svg" xmlns:xlink="http://www.w3.org/1999/xlink">
    <title>Culture/8_여행</title>
    <g id="Culture/8_여행" stroke="none" stroke-width="1" fill="none" fill-rule="evenodd">
        <g id="Group-8" transform="translate(13.996000, 14.000000)">
            <path d="M2,28 L33.977,28 L33.977,9 L2,9 L2,28 Z M34.977,30 L1,30 C0.447,30 0,29.553 0,29 L0,8 C0,7.447 0.447,7 1,7 L34.977,7 C35.529,7 35.977,7.447 35.977,8 L35.977,29 C35.977,29.553 35.529,30 34.977,30 L34.977,30 Z" id="Fill-3" fill="#000000"></path>
            <path d="M24.0001,9 C23.4471,9 23.0001,8.553 23.0001,8 L23.0001,2 L13.0001,2 L13.0001,8 C13.0001,8.553 12.5531,9 12.0001,9 C11.4471,9 11.0001,8.553 11.0001,8 L11.0001,1 C11.0001,0.447 11.4471,0 12.0001,0 L24.0001,0 C24.5531,0 25.0001,0.447 25.0001,1 L25.0001,8 C25.0001,8.553 24.5531,9 24.0001,9" id="Fill-5" fill="#231916"></path>
            <path d="M7.0001,30 C6.4471,30 6.0001,29.553 6.0001,29 L6.0001,8 C6.0001,7.447 6.4471,7 7.0001,7 C7.5531,7 8.0001,7.447 8.0001,8 L8.0001,29 C8.0001,29.553 7.5531,30 7.0001,30" id="Fill-6" fill="#000000"></path>
            <path d="M29.0001,30 C28.4471,30 28.0001,29.553 28.0001,29 L28.0001,8 C28.0001,7.447 28.4471,7 29.0001,7 C29.5531,7 30.0001,7.447 30.0001,8 L30.0001,29 C30.0001,29.553 29.5531,30 29.0001,30" id="Fill-7" fill="#000000"></path>
        </g>
    </g>
</svg>