<?xml version="1.0" encoding="UTF-8"?>
<svg width="64px" height="64px" viewBox="0 0 64 64" version="1.1" xmlns="http://www.w3.org/2000/svg" xmlns:xlink="http://www.w3.org/1999/xlink">
    <title>Culture/10_</title>
    <g id="Culture/10_" stroke="none" stroke-width="1" fill="none" fill-rule="evenodd">
        <g id="Group-11" transform="translate(20.125000, 13.128000)" fill="#000000">
            <polygon id="Fill-3" points="14 18.353 16 18.353 16 9.362 14 9.362"></polygon>
            <polygon id="Fill-4" points="9 14.858 15 14.858 15 12.858 9 12.858"></polygon>
            <polygon id="Fill-5" points="8.006 18.353 10.006 18.353 10.006 9.362 8.006 9.362"></polygon>
            <g id="Group-10">
                <path d="M15.625,36.9472 L13.625,36.9472 L13.625,31.0002 L10.375,31.0002 L10.375,36.9472 L8.375,36.9472 L8.375,30.0002 C8.375,29.4472 8.822,29.0002 9.375,29.0002 L14.625,29.0002 C15.178,29.0002 15.625,29.4472 15.625,30.0002 L15.625,36.9472 Z" id="Fill-6"></path>
                <path d="M2,35.947 L22,35.947 L22,2 L2,2 L2,35.947 Z M23,37.947 L1,37.947 C0.447,37.947 0,37.5 0,36.947 L0,1 C0,0.447 0.447,0 1,0 L23,0 C23.553,0 24,0.447 24,1 L24,36.947 C24,37.5 23.553,37.947 23,37.947 L23,37.947 Z" id="Fill-8"></path>
            </g>
        </g>
    </g>
</svg>